HIERARCHY
ROOT Hips
{
 OFFSET 0.000000 0.000000 0.000000
 CHANNELS 6 Xposition Yposition Zposition Yrotation Xrotation Zrotation
 JOINT Chest
 {
  OFFSET 0.000000 9.588913 -0.003946
  CHANNELS 3 Yrotation Xrotation Zrotation
  JOINT Chest2
  {
   OFFSET 0.000000 9.541882 0.008053
   CHANNELS 3 Yrotation Xrotation Zrotation
   JOINT Chest3
   {
    OFFSET 0.000000 9.501360 0.000000
    CHANNELS 3 Yrotation Xrotation Zrotation
    JOINT Chest4
    {
     OFFSET 0.000000 9.491660 0.000000
     CHANNELS 3 Yrotation Xrotation Zrotation
     JOINT Neck
     {
      OFFSET 0.000000 14.331917 0.000000
      CHANNELS 3 Yrotation Xrotation Zrotation
      JOINT Head
      {
       OFFSET 0.000000 8.884799 0.017034
       CHANNELS 3 Yrotation Xrotation Zrotation
       End Site
       {
        OFFSET 0.000000 16.896195 0.008993
       }
      }
     }
     JOINT RightCollar
     {
      OFFSET -2.923010 9.499495 0.000000
      CHANNELS 3 Yrotation Xrotation Zrotation
      JOINT RightShoulder
      {
       OFFSET -13.795216 0.000000 0.000000
       CHANNELS 3 Yrotation Xrotation Zrotation
       JOINT RightElbow
       {
        OFFSET -30.272209 0.000000 0.000000
        CHANNELS 3 Yrotation Xrotation Zrotation
        JOINT RightWrist
        {
         OFFSET -24.478199 0.000000 0.000000
         CHANNELS 3 Yrotation Xrotation Zrotation
         End Site
         {
          OFFSET -18.090752 0.000000 0.000000
         }
        }
       }
      }
     }
     JOINT LeftCollar
     {
      OFFSET 2.923010 9.499495 0.000000
      CHANNELS 3 Yrotation Xrotation Zrotation
      JOINT LeftShoulder
      {
       OFFSET 13.795216 0.000000 0.000000
       CHANNELS 3 Yrotation Xrotation Zrotation
       JOINT LeftElbow
       {
        OFFSET 30.272209 0.000000 0.000000
        CHANNELS 3 Yrotation Xrotation Zrotation
        JOINT LeftWrist
        {
         OFFSET 24.478199 0.000000 0.000000
         CHANNELS 3 Yrotation Xrotation Zrotation
         End Site
         {
          OFFSET 18.090752 0.000000 0.000000
         }
        }
       }
      }
     }
    }
   }
  }
 }
 JOINT RightHip
 {
  OFFSET -7.826875 0.019532 0.001973
  CHANNELS 3 Yrotation Xrotation Zrotation
  JOINT RightKnee
  {
   OFFSET 0.000000 -40.546152 -0.001885
   CHANNELS 3 Yrotation Xrotation Zrotation
   JOINT RightAnkle
   {
    OFFSET 0.000000 -39.417092 -0.003189
    CHANNELS 3 Yrotation Xrotation Zrotation
    JOINT RightToe
    {
     OFFSET 0.000000 -7.579396 17.243563
     CHANNELS 3 Yrotation Xrotation Zrotation
     End Site
     {
      OFFSET 0.000000 -1.500329 6.694466
     }
    }
   }
  }
 }
 JOINT LeftHip
 {
  OFFSET 7.826875 0.019532 0.001973
  CHANNELS 3 Yrotation Xrotation Zrotation
  JOINT LeftKnee
  {
   OFFSET 0.000000 -40.546152 -0.001885
   CHANNELS 3 Yrotation Xrotation Zrotation
   JOINT LeftAnkle
   {
    OFFSET 0.000000 -39.417092 -0.003189
    CHANNELS 3 Yrotation Xrotation Zrotation
    JOINT LeftToe
    {
     OFFSET 0.000000 -7.579396 17.243563
     CHANNELS 3 Yrotation Xrotation Zrotation
     End Site
     {
      OFFSET 0.000000 -1.500329 6.694466
     }
    }
   }
  }
 }
}
MOTION
Frames: 17
Frame Time: 0.008333
16.025414 86.159017 5.262241 -27.216948 -3.255066 4.485668 0.945706 9.473209 4.824528 0.353805 5.397020 2.316657 0.477051 6.743685 2.904287 0.353805 5.397024 2.316659 20.178423 21.111225 -11.689849 27.879610 0.774122 -19.280706 -1.083117 -3.817716 -2.557632 -12.882183 -5.852984 84.935939 14.602626 -11.328737 0.279051 1.053250 -3.653895 -4.400237 -7.098337 -4.553167 -7.434231 -1.175953 -13.803230 -78.592010 -6.884370 7.753111 -9.908184 -5.817908 0.526678 5.728564 -7.214611 -15.599818 -11.368199 -2.398902 23.538508 -1.564014 0.566621 -7.208688 2.294782 -0.050446 1.069159 0.020852 2.718545 -12.109731 4.796814 1.918439 28.699027 3.246616 6.187261 -11.559732 -10.945944 -0.387577 -1.162985 -0.055765
16.031169 86.153933 5.242036 -26.895740 -3.263290 4.483200 0.970883 9.469989 4.838503 0.367807 5.397022 2.320928 0.494635 6.743593 2.909840 0.367807 5.397026 2.320931 20.438846 21.150567 -11.717492 28.257285 0.906298 -19.398947 -1.089328 -3.844043 -2.554354 -12.900916 -5.788946 84.917518 14.602199 -11.348414 0.255575 1.028118 -3.637562 -4.381653 -7.093601 -4.561863 -7.410392 -1.178530 -13.795925 -78.633204 -6.913462 7.762293 -9.952496 -5.814525 0.525647 5.733143 -7.384009 -15.583509 -11.386116 -2.446727 23.571473 -1.591159 0.470709 -7.256281 2.315293 -0.049673 1.072865 0.021784 2.548053 -12.215826 4.784576 1.855354 28.743522 3.226197 6.087643 -11.514718 -10.937363 -0.388910 -1.173311 -0.055828
16.035742 86.149062 5.222661 -26.576678 -3.275279 4.478605 1.000539 9.467889 4.855013 0.383898 5.397096 2.325742 0.514842 6.743577 2.916102 0.383897 5.397101 2.325745 20.689496 21.194815 -11.743303 28.621464 1.042866 -19.511185 -1.099208 -3.873118 -2.550194 -12.923239 -5.720060 84.896515 14.605051 -11.379333 0.231081 1.007018 -3.628660 -4.374132 -7.091588 -4.572603 -7.391600 -1.191788 -13.786856 -78.666997 -6.948467 7.775813 -9.999340 -5.803399 0.533863 5.730545 -7.555645 -15.561572 -11.403755 -2.497660 23.601799 -1.616574 0.383905 -7.303271 2.335376 -0.049679 1.076630 0.021314 2.385900 -12.314454 4.773487 1.814768 28.781465 3.222105 5.960900 -11.472361 -10.936588 -0.385385 -1.180001 -0.051367
16.039247 86.144555 5.204619 -26.258022 -3.292174 4.473555 1.032817 9.468220 4.873001 0.400885 5.397044 2.331010 0.536176 6.743396 2.922945 0.400885 5.397050 2.331012 20.931823 21.242926 -11.768359 28.974508 1.183063 -19.619344 -1.111306 -3.902195 -2.549271 -12.948904 -5.650646 84.871493 14.605763 -11.416427 0.213921 0.998786 -3.632414 -4.381800 -7.090130 -4.585366 -7.379327 -1.215229 -13.775987 -78.691893 -6.985652 7.792398 -10.048725 -5.786566 0.546269 5.723096 -7.730346 -15.534086 -11.423320 -2.555491 23.631924 -1.641919 0.309219 -7.350629 2.353672 -0.050970 1.079744 0.020901 2.230916 -12.404376 4.760634 1.792768 28.812941 3.232809 5.813304 -11.432579 -10.942530 -0.377854 -1.183229 -0.043692
16.041861 86.140508 5.187859 -25.942343 -3.311971 4.468918 1.068952 9.470739 4.890694 0.418914 5.396028 2.335937 0.558803 6.742004 2.929375 0.418915 5.396034 2.335940 21.166305 21.293074 -11.790533 29.316297 1.324034 -19.720877 -1.120753 -3.927232 -2.552436 -12.985464 -5.585403 84.847631 14.600230 -11.450128 0.204132 1.007153 -3.650199 -4.402631 -7.087565 -4.599050 -7.369393 -1.250416 -13.763066 -78.710613 -7.021370 7.810606 -10.099610 -5.767919 0.562130 5.712318 -7.905543 -15.502856 -11.444109 -2.619814 23.660871 -1.668371 0.243582 -7.397979 2.370650 -0.052658 1.082423 0.020479 2.082178 -12.489307 4.743975 1.774644 28.843332 3.250751 5.665551 -11.395385 -10.950844 -0.369858 -1.184993 -0.037146
16.043925 86.136980 5.171965 -25.626990 -3.331423 4.465514 1.106665 9.472361 4.905086 0.438095 5.394327 2.339966 0.582853 6.739748 2.934696 0.438096 5.394333 2.339969 21.393546 21.343269 -11.807357 29.646787 1.462628 -19.812845 -1.126571 -3.949522 -2.558212 -13.033465 -5.525213 84.829209 14.585922 -11.475914 0.196581 1.031390 -3.676507 -4.431178 -7.083860 -4.615205 -7.357806 -1.295983 -13.745612 -78.727991 -7.056342 7.827806 -10.147393 -5.747507 0.579730 5.698629 -8.085592 -15.470859 -11.464374 -2.684087 23.686607 -1.696090 0.179008 -7.445116 2.386730 -0.053715 1.085537 0.020433 1.933647 -12.571726 4.721572 1.746247 28.870792 3.269225 5.534051 -11.359645 -10.957746 -0.365564 -1.184853 -0.035083
16.045308 86.133982 5.156463 -25.309111 -3.348964 4.462071 1.144437 9.470992 4.915905 0.458696 5.392413 2.343537 0.608671 6.737217 2.939465 0.458696 5.392420 2.343541 21.613419 21.393124 -11.818774 29.965683 1.598169 -19.895140 -1.134136 -3.972764 -2.564307 -13.082097 -5.466471 84.812901 14.565010 -11.497425 0.190624 1.068567 -3.702725 -4.464684 -7.082402 -4.633113 -7.342887 -1.346060 -13.723869 -78.746765 -7.092170 7.843106 -10.190774 -5.727193 0.592305 5.685967 -8.273315 -15.438575 -11.482367 -2.743604 23.707271 -1.723580 0.111505 -7.491356 2.401796 -0.053947 1.089420 0.021003 1.779358 -12.652344 4.695147 1.707024 28.892641 3.287258 5.420559 -11.324966 -10.962823 -0.366762 -1.182000 -0.037637
16.042109 86.131586 5.143839 -25.009233 -3.387330 4.446341 1.203706 9.488792 4.935920 0.480470 5.390217 2.347112 0.635955 6.734327 2.944255 0.480470 5.390225 2.347115 21.825136 21.444310 -11.825185 30.271803 1.732607 -19.967904 -1.145024 -3.997660 -2.567419 -13.120702 -5.404596 84.792250 14.541347 -11.517048 0.185053 1.112324 -3.725362 -4.496762 -7.085216 -4.647180 -7.324171 -1.394855 -13.702614 -78.765980 -7.128686 7.857896 -10.234203 -5.711490 0.595880 5.679689 -8.448796 -15.380101 -11.486189 -2.799631 23.729796 -1.753170 0.040751 -7.551293 2.415820 -0.054677 1.102549 0.022297 1.631553 -12.709080 4.682379 1.657557 28.913061 3.300453 5.338230 -11.270730 -10.960628 -0.388335 -1.196878 -0.051079
16.043933 86.129537 5.126078 -24.660046 -3.384823 4.448014 1.217825 9.459581 4.932220 0.501370 5.387556 2.350027 0.662133 6.730860 2.948203 0.501371 5.387563 2.350030 22.029982 21.498799 -11.828598 30.567550 1.869371 -20.034061 -1.156100 -4.025450 -2.569024 -13.143563 -5.338812 84.765398 14.515043 -11.531252 0.178575 1.153579 -3.744329 -4.523173 -7.087981 -4.653429 -7.300466 -1.438518 -13.686352 -78.787158 -7.164637 7.872793 -10.283623 -5.703151 0.595714 5.682744 -8.665580 -15.360674 -11.503105 -2.849801 23.730147 -1.784733 -0.039036 -7.579312 2.431852 -0.053972 1.098614 0.025667 1.434497 -12.808271 4.651848 1.592845 28.932339 3.297420 5.249423 -11.260046 -10.961139 -0.378373 -1.174538 -0.053032
16.042036 86.128038 5.110515 -24.321680 -3.399127 4.443488 1.246248 9.447516 4.937043 0.520483 5.384400 2.351751 0.686053 6.726788 2.950634 0.520484 5.384406 2.351753 22.228394 21.557314 -11.830236 30.853871 2.009807 -20.095301 -1.164335 -4.060178 -2.571789 -13.153826 -5.270019 84.733695 14.485317 -11.537647 0.172888 1.185735 -3.755819 -4.544122 -7.086787 -4.652378 -7.272968 -1.479091 -13.677643 -78.813822 -7.195720 7.885816 -10.334054 -5.703789 0.594989 5.691086 -8.870712 -15.323749 -11.512760 -2.900225 23.739910 -1.819874 -0.123314 -7.623070 2.448169 -0.054244 1.102804 0.029091 1.238114 -12.888419 4.636365 1.525335 28.947218 3.278895 5.176213 -11.225496 -10.948795 -0.382067 -1.172202 -0.062375
16.038461 86.126892 5.094692 -23.976237 -3.412514 4.437579 1.271270 9.433417 4.942324 0.538652 5.381079 2.353206 0.708787 6.722517 2.952714 0.538653 5.381085 2.353209 22.417303 21.620164 -11.828666 31.125659 2.152922 -20.148706 -1.170378 -4.101277 -2.574295 -13.157193 -5.200596 84.697083 14.451533 -11.541505 0.168078 1.204506 -3.752476 -4.555694 -7.084780 -4.647930 -7.246900 -1.517222 -13.673678 -78.844300 -7.222189 7.895855 -10.378910 -5.711398 0.588984 5.702380 -9.080806 -15.285863 -11.522023 -2.957985 23.748323 -1.855488 -0.201809 -7.666229 2.463749 -0.054923 1.106260 0.031441 1.032260 -12.970290 4.629757 1.476869 28.960805 3.257188 5.081834 -11.190333 -10.931873 -0.381537 -1.171664 -0.069438
16.032036 86.125981 5.079198 -23.628639 -3.429205 4.425360 1.297789 9.421146 4.950553 0.556379 5.377124 2.355114 0.730971 6.717454 2.955352 0.556381 5.377130 2.355116 22.595067 21.687270 -11.822814 31.380016 2.297724 -20.192338 -1.177415 -4.141109 -2.575492 -13.154927 -5.135855 84.656570 14.414530 -11.545749 0.163780 1.208893 -3.735053 -4.557407 -7.082841 -4.641907 -7.223387 -1.548609 -13.669138 -78.875239 -7.249326 7.905026 -10.422187 -5.721520 0.578754 5.718171 -9.294958 -15.239862 -11.524935 -3.025705 23.751643 -1.893491 -0.271115 -7.707781 2.480160 -0.056163 1.109304 0.031282 0.830521 -13.051370 4.635789 1.452248 28.977628 3.241164 4.951029 -11.157889 -10.914035 -0.376923 -1.173328 -0.073008
16.023028 86.125204 5.064323 -23.280590 -3.448133 4.407353 1.326043 9.411303 4.961612 0.573045 5.371740 2.357415 0.751823 6.710611 2.958461 0.573047 5.371745 2.357417 22.763541 21.756616 -11.813201 31.619848 2.442171 -20.227641 -1.186311 -4.176048 -2.576322 -13.148496 -5.079371 84.613167 14.374718 -11.545178 0.161879 1.200150 -3.713538 -4.555261 -7.077953 -4.633171 -7.200186 -1.570639 -13.662794 -78.910083 -7.278957 7.915031 -10.464024 -5.733083 0.570911 5.736420 -9.513131 -15.187022 -11.520182 -3.099603 23.749576 -1.935626 -0.334359 -7.747881 2.499726 -0.058189 1.112392 0.028440 0.646026 -13.132434 4.649622 1.441023 28.996722 3.234432 4.783047 -11.128965 -10.896159 -0.370458 -1.176405 -0.074124
16.012162 86.124463 5.050312 -22.930007 -3.467517 4.385047 1.353900 9.402982 4.974298 0.588138 5.365188 2.360501 0.770708 6.702318 2.962526 0.588140 5.365193 2.360503 22.924143 21.825035 -11.801324 31.847866 2.582809 -20.257308 -1.194323 -4.206929 -2.579497 -13.140963 -5.032509 84.569082 14.330963 -11.538359 0.162831 1.179088 -3.695849 -4.550591 -7.069921 -4.622506 -7.177643 -1.581758 -13.655754 -78.951336 -7.310292 7.926938 -10.502828 -5.743648 0.567102 5.753463 -9.733499 -15.128786 -11.510888 -3.174621 23.742505 -1.977935 -0.398259 -7.787304 2.521063 -0.061042 1.116175 0.024622 0.481086 -13.214972 4.664881 1.426930 29.016798 3.234180 4.596393 -11.102850 -10.878085 -0.365349 -1.179377 -0.074355
15.999944 86.123667 5.037689 -22.578974 -3.488285 4.358935 1.381847 9.396910 4.987100 0.602098 5.358381 2.364449 0.788188 6.693710 2.967652 0.602100 5.358385 2.364451 23.078132 21.890153 -11.788210 32.066361 2.717078 -20.283302 -1.196781 -4.232768 -2.587712 -13.134735 -4.994607 84.530332 14.287665 -11.530118 0.165030 1.150300 -3.681534 -4.544638 -7.056456 -4.613883 -7.155102 -1.584406 -13.645964 -78.997284 -7.342066 7.939336 -10.541121 -5.749549 0.565934 5.767964 -9.950567 -15.063068 -11.499581 -3.244912 23.729969 -2.014673 -0.471104 -7.826325 2.540175 -0.064155 1.121349 0.022416 0.332835 -13.296567 4.679231 1.393042 29.038004 3.232076 4.417124 -11.080153 -10.858914 -0.363239 -1.180511 -0.075438
15.987253 86.122737 5.026931 -22.229296 -3.511498 4.331444 1.410627 9.392876 4.997828 0.615716 5.351776 2.368658 0.805244 6.685357 2.973099 0.615717 5.351780 2.368660 23.227442 21.951588 -11.774415 32.278352 2.845186 -20.307018 -1.193272 -4.253909 -2.599298 -13.134151 -4.962410 84.499117 14.250549 -11.520517 0.168309 1.120296 -3.668710 -4.542492 -7.037805 -4.609439 -7.130683 -1.582680 -13.630799 -79.048414 -7.370426 7.948977 -10.577620 -5.754958 0.565665 5.781210 -10.160245 -14.990090 -11.488978 -3.309313 23.714099 -2.045991 -0.556051 -7.865601 2.554653 -0.066779 1.127889 0.024209 0.195865 -13.373611 4.690415 1.331786 29.058251 3.223177 4.256699 -11.061186 -10.836720 -0.364981 -1.178689 -0.079451
15.975032 86.121510 5.017519 -21.879223 -3.533886 4.303557 1.439948 9.386777 5.005980 0.630722 5.345540 2.372900 0.824040 6.677456 2.978609 0.630724 5.345545 2.372902 23.371073 22.009526 -11.761139 32.482752 2.967309 -20.329746 -1.190617 -4.273378 -2.610087 -13.143396 -4.934119 84.473815 14.220633 -11.505561 0.172617 1.093921 -3.660321 -4.543658 -7.022897 -4.609284 -7.104480 -1.576008 -13.609844 -79.102376 -7.393210 7.957513 -10.611865 -5.762068 0.560441 5.794843 -10.362321 -14.915626 -11.478118 -3.373603 23.698202 -2.078668 -0.648858 -7.905010 2.566948 -0.068917 1.134646 0.029646 0.059289 -13.450188 4.697501 1.249921 29.078559 3.209385 4.118997 -11.044343 -10.814337 -0.368555 -1.174577 -0.084863
